<svg id="Capa_1" enable-background="new 0 0 512 512" height="512" viewBox="0 0 512 512" width="512" xmlns="http://www.w3.org/2000/svg"><g><g><g><g><g><g><g><circle cx="256" cy="256" fill="#2864f0" r="256"/></g></g></g></g></g></g><path d="m512 256c0-5.968-.204-11.887-.606-17.753l-123.672-123.671-18.898 21.193-97.824-97.824-182.621 282.673 110.848 110.848-12.277 12.735 67.796 67.796c.418.002.836.003 1.254.003 141.385 0 256-114.615 256-256z" fill="#27488f"/><g><path d="m98.974 325c8.284 0 15-6.716 15-15v-24.095h-30v24.095c0 8.284 6.715 15 15 15z" fill="#dce1eb"/></g><g><path d="m174.029 325c8.284 0 15-6.716 15-15v-24.095h-30v24.095c0 8.284 6.716 15 15 15z" fill="#dce1eb"/></g><g><path d="m337.971 325c8.284 0 15-6.716 15-15v-24.095h-30v24.095c0 8.284 6.715 15 15 15z" fill="#bec3d2"/></g><g><path d="m413.026 325c8.284 0 15-6.716 15-15v-24.095h-30v24.095c0 8.284 6.716 15 15 15z" fill="#bec3d2"/></g><g><path d="m219.344 455.661c-28.483 0-51.656-23.173-51.656-51.656v-39.618h30v39.618c0 11.941 9.715 21.656 21.656 21.656s21.656-9.714 21.656-21.655v-366.061h30v366.061c0 28.483-23.173 51.655-51.656 51.655z" fill="#bfe1ff"/></g><g><path d="m255.707 37.945v402.709c9.438-9.365 15.293-22.334 15.293-36.648v-366.061z" fill="#87c7ff"/></g><g><path d="m428.026 292.367h-344.052v-73.98c0-84.971 68.883-153.854 153.854-153.854h36.344c84.971 0 153.854 68.883 153.854 153.854z" fill="#fff"/></g><g><path d="m428.026 218.387c0-84.971-68.883-153.854-153.854-153.854h-18.465v227.834h172.319z" fill="#e9edf5"/></g><g><path d="m337.971 292.367h-163.942v-145.864c0-45.271 36.699-81.971 81.971-81.971 45.271 0 81.971 36.699 81.971 81.971z" fill="#e9edf5"/></g><g><path d="m337.971 146.503c0-45.271-36.699-81.971-81.971-81.971-.098 0-.195.007-.293.007v227.827h82.263v-145.863z" fill="#cdd2e1"/></g></g></svg>