<?xml version="1.0" encoding="iso-8859-1"?>
<!-- Generator: Adobe Illustrator 19.0.0, SVG Export Plug-In . SVG Version: 6.00 Build 0)  -->
<svg version="1.1" id="Capa_1" xmlns="http://www.w3.org/2000/svg" xmlns:xlink="http://www.w3.org/1999/xlink" x="0px" y="0px"
	 viewBox="0 0 480 480" style="enable-background:new 0 0 480 480;" xml:space="preserve">
<circle style="fill:#5EB8AB;" cx="240" cy="240" r="232"/>
<path style="fill:#60A867;" d="M240,8v464c128,0,232-104,232-232S368,8,240,8z"/>
<path style="fill:#57965C;" d="M328,25.6c118.4,105.6,128.8,288,23.2,406.4c-7.2,8-15.2,16-23.2,23.2
	c118.4-48.8,175.2-184,127.2-302.4C431.2,94.4,385.6,48.8,328,25.6z"/>
<path id="SVGCleanerId_0" style="fill:#DBDBDB;" d="M240,0C107.2,0,0,107.2,0,240s107.2,240,240,240s240-107.2,240-240
	S372.8,0,240,0z M417.6,104h-78.4c-12-35.2-28.8-64-48.8-82.4C341.6,33.6,386.4,62.4,417.6,104z M16,248h104
	c0,37.6,5.6,75.2,15.2,112h-84C29.6,326.4,17.6,288,16,248z M248,104V16.8c29.6,4.8,56,38.4,73.6,87.2H248z M327.2,120
	c10.4,36.8,16,74.4,16.8,112h-96V120H327.2z M232,16.8V104h-73.6C176,55.2,202.4,21.6,232,16.8z M232,120v112h-96
	c0.8-37.6,6.4-75.2,16.8-112H232z M120,232H16c1.6-40,13.6-78.4,34.4-112H136C125.6,156.8,120.8,194.4,120,232z M136,248h96v112
	h-79.2C142.4,323.2,136.8,285.6,136,248z M232,376v87.2c-29.6-4.8-56-38.4-73.6-87.2H232z M248,463.2V376h73.6
	C304,424.8,277.6,458.4,248,463.2z M248,360V248h96c-0.8,37.6-6.4,75.2-16.8,112H248z M360,248h104c-1.6,40-13.6,78.4-34.4,112H344
	C354.4,323.2,359.2,285.6,360,248z M360,232c0-37.6-5.6-75.2-15.2-112h84.8c21.6,33.6,33.6,72,34.4,112H360z M188.8,21.6
	c-19.2,18.4-36,47.2-48,82.4H62.4C93.6,62.4,138.4,33.6,188.8,21.6z M62.4,376h78.4c12,35.2,28.8,64,48.8,82.4
	C138.4,446.4,93.6,417.6,62.4,376z M291.2,458.4C311.2,440,328,412,340,376h78.4C386.4,417.6,341.6,446.4,291.2,458.4z"/>
<g>
	<path id="SVGCleanerId_0_1_" style="fill:#DBDBDB;" d="M240,0C107.2,0,0,107.2,0,240s107.2,240,240,240s240-107.2,240-240
		S372.8,0,240,0z M417.6,104h-78.4c-12-35.2-28.8-64-48.8-82.4C341.6,33.6,386.4,62.4,417.6,104z M16,248h104
		c0,37.6,5.6,75.2,15.2,112h-84C29.6,326.4,17.6,288,16,248z M248,104V16.8c29.6,4.8,56,38.4,73.6,87.2H248z M327.2,120
		c10.4,36.8,16,74.4,16.8,112h-96V120H327.2z M232,16.8V104h-73.6C176,55.2,202.4,21.6,232,16.8z M232,120v112h-96
		c0.8-37.6,6.4-75.2,16.8-112H232z M120,232H16c1.6-40,13.6-78.4,34.4-112H136C125.6,156.8,120.8,194.4,120,232z M136,248h96v112
		h-79.2C142.4,323.2,136.8,285.6,136,248z M232,376v87.2c-29.6-4.8-56-38.4-73.6-87.2H232z M248,463.2V376h73.6
		C304,424.8,277.6,458.4,248,463.2z M248,360V248h96c-0.8,37.6-6.4,75.2-16.8,112H248z M360,248h104c-1.6,40-13.6,78.4-34.4,112H344
		C354.4,323.2,359.2,285.6,360,248z M360,232c0-37.6-5.6-75.2-15.2-112h84.8c21.6,33.6,33.6,72,34.4,112H360z M188.8,21.6
		c-19.2,18.4-36,47.2-48,82.4H62.4C93.6,62.4,138.4,33.6,188.8,21.6z M62.4,376h78.4c12,35.2,28.8,64,48.8,82.4
		C138.4,446.4,93.6,417.6,62.4,376z M291.2,458.4C311.2,440,328,412,340,376h78.4C386.4,417.6,341.6,446.4,291.2,458.4z"/>
</g>
<g>
</g>
<g>
</g>
<g>
</g>
<g>
</g>
<g>
</g>
<g>
</g>
<g>
</g>
<g>
</g>
<g>
</g>
<g>
</g>
<g>
</g>
<g>
</g>
<g>
</g>
<g>
</g>
<g>
</g>
</svg>
