<?xml version="1.0" encoding="iso-8859-1"?>
<!-- Generator: Adobe Illustrator 19.0.0, SVG Export Plug-In . SVG Version: 6.00 Build 0)  -->
<svg version="1.1" id="Capa_1" xmlns="http://www.w3.org/2000/svg" xmlns:xlink="http://www.w3.org/1999/xlink" x="0px" y="0px"
	 viewBox="0 0 512 512" style="enable-background:new 0 0 512 512;" xml:space="preserve">
<rect x="181" y="406" style="fill:#444444;" width="150" height="60"/>
<rect x="256" y="406" style="fill:#292929;" width="75" height="60"/>
<path style="fill:#5A5A5A;" d="M0,31v390h512V31H0z"/>
<rect x="256" y="31" style="fill:#444444;" width="256" height="390"/>
<path style="fill:#FFFDE5;" d="M30,61v330h452V61H30z"/>
<rect x="256" y="61" style="fill:#FEF8C9;" width="226" height="330"/>
<rect x="91" y="451" style="fill:#5A5A5A;" width="330" height="30"/>
<rect x="256" y="451" style="fill:#444444;" width="165" height="30"/>
<g>
	
		<rect x="166.002" y="282.45" transform="matrix(-0.8944 -0.4472 0.4472 -0.8944 201.5792 679.5636)" style="fill:#25D9F8;" width="29.999" height="67.078"/>
	<polygon style="fill:#25D9F8;" points="269.5,292.599 239.5,352.599 212.5,339.399 242.5,279.399 256,286 	"/>
</g>
<rect x="286" y="282.449" transform="matrix(-0.8944 -0.4472 0.4472 -0.8944 428.9071 733.2264)" style="fill:#00C0F1;" width="29.999" height="67.078"/>
<circle style="fill:#FF7816;" cx="331" cy="151" r="60"/>
<polygon style="fill:#00C0F1;" points="269.5,292.599 256,319.6 256,286 "/>
<path style="fill:#FDBF00;" d="M325.6,181.3c-10.8-30.901-37.2-53.701-69.6-59.101c-4.799-0.899-9.901-1.199-15-1.199
	c-41.1,0-76.199,27.599-86.7,66.599C134.2,197.5,121,217.899,121,241c0,32.999,27.001,60,60,60h150c32.999,0,60-27.001,60-60
	C391,206.199,360.7,177.999,325.6,181.3z"/>
<path style="fill:#FF9F00;" d="M391,241c0,32.999-27.001,60-60,60h-75V122.199c32.401,5.4,58.801,28.2,69.6,59.101
	C360.7,177.999,391,206.199,391,241z"/>
<g>
</g>
<g>
</g>
<g>
</g>
<g>
</g>
<g>
</g>
<g>
</g>
<g>
</g>
<g>
</g>
<g>
</g>
<g>
</g>
<g>
</g>
<g>
</g>
<g>
</g>
<g>
</g>
<g>
</g>
</svg>
